<svg width="51" height="44" viewBox="0 0 51 44" fill="none" xmlns="http://www.w3.org/2000/svg">
<g clip-path="url(#clip0_9037_85)">
<path d="M20.9 31.59H30.9C31.8195 31.5874 32.7005 31.221 33.3507 30.5708C34.0009 29.9206 34.3674 29.0396 34.37 28.1201C34.3647 27.2023 33.9972 26.3238 33.3473 25.6758C32.6974 25.0278 31.8178 24.6627 30.9 24.66H24.5599C23.1372 24.6432 21.725 24.4141 20.37 23.9801C17.86 23.4401 13.8001 23.4101 11.9401 28.1201H7.94006M34.3199 28.12L43.3199 22.82C44.1054 22.3442 45.0476 22.1991 45.9398 22.4165C46.832 22.6339 47.6015 23.1962 48.08 23.98C48.5541 24.7649 48.6993 25.7052 48.484 26.5965C48.2687 27.4879 47.7102 28.2582 46.9301 28.74L35.16 37.6C33.0617 39.1792 30.5062 40.0322 27.88 40.03H7.88M30.9801 12.4301L28.5299 14.8901C28.515 14.9055 28.4972 14.9178 28.4774 14.9262C28.4577 14.9345 28.4364 14.9388 28.4149 14.9388C28.3935 14.9388 28.3724 14.9345 28.3527 14.9262C28.3329 14.9178 28.3148 14.9055 28.2999 14.8901L26.7899 12.42H20.1901C19.6097 13.9302 18.585 15.2289 17.2513 16.1447C15.9177 17.0606 14.3379 17.5506 12.7201 17.5501C10.5984 17.5501 8.5634 16.7072 7.06311 15.2069C5.56282 13.7066 4.72009 11.6718 4.72009 9.55005C4.72009 7.42832 5.56282 5.39348 7.06311 3.89319C8.5634 2.3929 10.5984 1.55005 12.7201 1.55005C14.3367 1.54876 15.9157 2.03732 17.2491 2.9513C18.5826 3.86528 19.6081 5.16179 20.1901 6.67005H34.9L38.66 9.86005L33.66 15.03L30.9801 12.48M7.90002 26.35C7.90002 26.2068 7.84309 26.0695 7.74182 25.9682C7.64055 25.8669 7.5032 25.8101 7.35999 25.8101H2.08997C1.94675 25.8101 1.8094 25.8669 1.70813 25.9682C1.60686 26.0695 1.54993 26.2068 1.54993 26.35V41.78C1.54993 41.9232 1.60686 42.0606 1.70813 42.1619C1.8094 42.2631 1.94675 42.3201 2.08997 42.3201H7.35999C7.5032 42.3201 7.64055 42.2631 7.74182 42.1619C7.84309 42.0606 7.90002 41.9232 7.90002 41.78V26.35Z" stroke="#F1FFF3" stroke-width="3" stroke-linecap="round" stroke-linejoin="round"/>
<path d="M10.5699 11.1999C11.7628 11.1999 12.7299 10.2328 12.7299 9.03988C12.7299 7.84695 11.7628 6.87988 10.5699 6.87988C9.37698 6.87988 8.40991 7.84695 8.40991 9.03988C8.40991 10.2328 9.37698 11.1999 10.5699 11.1999Z" fill="#F1FFF3"/>
</g>
<defs>
<clipPath id="clip0_9037_85">
<rect width="50.09" height="43.82" fill="white"/>
</clipPath>
</defs>
</svg>
